<?xml version="1.0" encoding="utf-8"?>
<!-- Generator: Adobe Illustrator 24.0.2, SVG Export Plug-In . SVG Version: 6.00 Build 0)  -->
<svg version="1.1" id="layer" xmlns="http://www.w3.org/2000/svg" xmlns:xlink="http://www.w3.org/1999/xlink" x="0px" y="0px"
	 viewBox="0 0 50 50" style="enable-background:new 0 0 50 50;" xml:space="preserve">
<style type="text/css">
	.st0{fill:#9AB98E;}
</style>
<g>
	<path class="st0" d="M38.5,45.8L32.8,37c-2.4,1.1-5,1.7-7.8,1.7c-10,0-18.1-7.8-18.1-17.4S15,3.8,25,3.8s18.1,7.8,18.1,17.4
		c0,6.4-3.6,12-9,15l5.7,8.7L38.5,45.8z M25,5.3c-9.1,0-16.6,7.1-16.6,15.9S15.9,37.2,25,37.2S41.6,30,41.6,21.3S34.1,5.3,25,5.3z"
		/>
	<g>
		<path class="st0" d="M19.4,34.7c-0.2,0.6-0.3,1.2-0.3,1.6l1.5,1c0.1-0.3,0.2-1.6,0.3-2c0.3-0.8,0.6-1.8,1-2.7
			c0.3-0.7,0.6-1.6,0.9-2.3c1.9,0.3,3.9,0.1,5.4-0.6c1.6-0.7,3-1.8,4.4-3.7c1.8-2.3,4-5.8,3.9-10c0-2.4-1.2-5.2-3.4-5.9
			c-1.4-0.4-3-0.1-4.7,1.1c-2.2,1.6-4,3.8-5,6.5c-0.6,1.6-0.9,3.3-1.2,4.9c-1.3-3.1-3.6-5.7-6.3-7.4c-0.4-0.3-0.9-0.6-1.4-0.6
			c-0.9-0.1-1.7,0.4-2.3,1.3c-0.4,0.6-0.6,1.3-0.8,2.3c-0.4,2.8,0.8,6.1,3.1,8.2c1.6,1.6,4,2.8,6.6,3.5c-0.3,0.6-0.5,1.1-0.8,1.8
			C20,32.7,19.7,33.7,19.4,34.7z M35.5,15.7c0.1,4-2,7.5-3.7,9.6c-1.4,1.7-2.8,2.9-4.1,3.6c-1,0.5-2,0.6-3.1,0.6
			c4.8-3.9,8.5-9.6,10.5-16C35.3,14.3,35.5,15.1,35.5,15.7z M34.8,12.8c-1.8,6.8-6,12.7-11.2,16.8c1.3-2.3,3-4.5,4.5-6.8
			c2.3-3.3,4.7-6.5,6.5-10.1L34.8,12.8z M24.7,18.3c1-2.5,2.7-4.8,4.8-6.2c1-0.6,2.4-1.4,3.5-0.9c0.6,0.2,1,0.5,1.3,0.9
			c-1.8,3.6-4.3,7-6.7,10.2c-1.6,2.2-3.1,4.2-4.4,6.5C23.3,25.5,23.4,21.6,24.7,18.3z M14.9,25c-2-1.8-2.6-4.1-2.6-6.2
			c0-1.1,0.8-1.9,0.9-2.4c0.1-0.3,0.4-0.5,0.7-0.5c3.5,3.1,5.6,7.7,7.4,12l0.6,1.3C19.6,28.5,16.4,26.4,14.9,25z M15.5,16.6
			c3,2,5.4,5.2,6.6,9c0.3,1.1,0.3,2,0.2,3l-0.4-0.9C20.2,23.9,18.4,19.7,15.5,16.6z"/>
	</g>
</g>
</svg>
