<svg version="1.1" viewBox="0.0 0.0 100.0 100.0" fill="none" stroke="none" stroke-linecap="square" stroke-miterlimit="10" xmlns:xlink="http://www.w3.org/1999/xlink" xmlns="http://www.w3.org/2000/svg"><clipPath id="p.0"><path d="m0 0l100.0 0l0 100.0l-100.0 0l0 -100.0z" clip-rule="nonzero"/></clipPath><g clip-path="url(#p.0)"><path fill="#000000" fill-opacity="0.0" d="m0 0l100.0 0l0 100.0l-100.0 0z" fill-rule="evenodd"/><path fill="#000000" fill-opacity="0.0" d="m23.244095 0l53.51181 0l0 75.49606l-53.51181 0z" fill-rule="evenodd"/><path stroke="#000000" stroke-width="1.0" stroke-linejoin="round" stroke-linecap="butt" d="m23.244095 0l53.51181 0l0 75.49606l-53.51181 0z" fill-rule="evenodd"/><path fill="#000000" fill-opacity="0.0" d="m23.244095 84.0l53.51181 0" fill-rule="evenodd"/><path stroke="#000000" stroke-width="1.0" stroke-linejoin="round" stroke-linecap="butt" d="m29.244095 84.0l41.51181 0" fill-rule="evenodd"/><path fill="#000000" stroke="#000000" stroke-width="1.0" stroke-linecap="butt" d="m29.244095 82.34827l-4.5380974 1.6517334l4.5380974 1.6517334z" fill-rule="evenodd"/><path fill="#000000" stroke="#000000" stroke-width="1.0" stroke-linecap="butt" d="m70.755905 85.65173l4.538101 -1.6517334l-4.538101 -1.6517334z" fill-rule="evenodd"/><path fill="#000000" fill-opacity="0.0" d="m-0.002624672 75.49606l100.0 0l0 33.921257l-100.0 0z" fill-rule="evenodd"/><path fill="#000000" d="m45.995422 96.01606l2.9375 -4.484375l-2.65625 -4.109375l2.015625 0l1.734375 2.765625l1.6875 -2.765625l2.0 0l-2.671875 4.171875l2.9375 4.421875l-2.09375 0l-1.90625 -2.96875l-1.90625 2.96875l-2.078125 0z" fill-rule="nonzero"/></g></svg>