<?xml version="1.0" encoding="utf-8"?>
<!-- Generator: Adobe Illustrator 24.0.2, SVG Export Plug-In . SVG Version: 6.00 Build 0)  -->
<svg version="1.1" id="圖層_1" xmlns="http://www.w3.org/2000/svg" xmlns:xlink="http://www.w3.org/1999/xlink" x="0px" y="0px"
	 viewBox="0 0 100 100" style="enable-background:new 0 0 100 100;" xml:space="preserve" width="100" height="100"  preserveAspectRatio="none slice">
<style type="text/css">
	.st0{fill:#FFFFFF;}
	.st1{fill:#B7E885;}
	.st2{fill:#6D6D6D;}
</style>
<g id="圖層_2_1_">
</g>
<g id="分離模式">
	<g>
		<path class="st0" d="M49.5,22.4c0,0,2.1-11.1-1.1-14.2s-2.2-3.3-5.5-2s-3.9,3.1-3.5,4.6C39.6,12.4,42.7,22.4,49.5,22.4z"/>
		<path class="st0" d="M51,23.5c0,0,5.8,1.1,9.5-1.5c3.7-2.6,6.9-6.3,5-8.8c-1.9-2.6-2.8-1.6-5.2-0.4c-5.5,2.7-8.1,6-9.3,6.9
			C49.8,20.5,51,23.5,51,23.5z"/>
		<path class="st0" d="M55.6,64.5c0,0-0.2,0.4-0.4,1c-0.5,1.4-1.2,4-0.9,6.1c0.4,3.2,2.5,3.9,2.4,1.2S59.3,65.9,55.6,64.5z"/>
		<path class="st0" d="M59.8,66.7c0,0,0.4,8.1,3.5,9.7c3.1,1.6,7.4,2.2,7.8-0.3S66.7,65.7,59.8,66.7z"/>
		<path class="st1" d="M31.8,30.7c0,0,2.1-10.4-1.7-11.1s-2.8-3.4-4.3-2s-2.6,7.6-0.3,10.1S30.9,30,31.8,30.7z"/>
		<path class="st1" d="M59.5,56.8c0,0-3-4.7-1.9-8s3.9-6,5.3-5.3c2.4,1.1-2.6,9.5,0.4,9c3.1-0.5,12-5.2,14.1-3.7s4.6,5.5-0.6,8.5
			c-5.3,3-11.6,2.8-14.2,1.5C59.9,57.6,59.5,56.8,59.5,56.8z"/>
		<g>
			<path class="st2" d="M41.5,76.1c1.2,7.3,3.9,13.7,8,18.7c0.1,0.2,0.3,0.3,0.5,0.3s0.5,0,0.7-0.2c0.4-0.3,0.4-0.8,0.1-1.2
				c-4-5-6.6-11.4-7.8-18.7c0-3.3,1.7-6.9,4.7-9.9c2.1-0.4,4.2-0.4,6.3,0c-0.6,0.9-1,2.1-1.1,2.6c-0.5,2-0.3,4.2,0.6,6
				c0.1,0.3,0.3,0.6,0.6,0.8c0.2,0.1,0.4,0.2,0.6,0.3c0.4,0.1,0.9,0,1.4-0.3c1.2-0.7,2-2.1,2.2-4.2c0.1-0.9,0.2-2.2-0.1-3.6
				c0-0.2-0.1-0.4-0.2-0.6c0.6,0.2,1.1,0.4,1.7,0.6c-1.2,2,0,5.1,1.2,7.4c0.8,1.6,2.3,3.6,4.6,4.3c0.2,0.1,0.4,0.1,0.6,0.2
				c2,0.4,4.3-0.4,5.4-2.5c0.7-1.4,0.6-3.3-0.3-4.9C70.6,70,69.6,69,68.1,68l0,0L68,68c-1.4-1-4.5-3-6.6-2.5
				c-3.5-1.3-7.5-2.5-11.5-2.4c2.1-1.7,4.4-3.1,6.7-4.6c1-0.6,1.9-1.2,2.9-1.8c0.3,0.5,0.8,0.9,1.2,1.2c1.1,0.8,2.4,1.3,4.1,1.6
				c0.2,0,0.3,0.1,0.5,0.1c2.8,0.4,5.7,0.3,8.5-0.5c2.4-0.6,4.1-1.6,5.3-3c1.6-1.9,1.9-4.4,0.7-6.2c-0.9-1.4-2.5-2.3-4.4-2.4
				c-1.7-0.1-3.3,0.4-4.6,0.8c-2.7,0.9-5.2,2.2-7.6,3.7c0.4-0.7,0.8-1.4,1-1.8c1.1-2.5,1.3-5,0.6-7.2c-0.1-0.3-0.3-0.7-0.7-1
				c-0.8-0.6-1.8-0.4-2.8,0.5c-1.5,1.5-2.8,3.2-3.7,5.2c-0.7,1.6-1,3-0.9,4.3c0.1,0.9,0.4,1.8,0.8,2.5c0.2,0.3,0.5,0.7,0.8,1
				c-0.8,0.5-1.6,1-2.4,1.5c-0.2,0.1-0.5,0.3-0.7,0.5c0-0.6-0.2-1.2-0.3-1.7v-0.2c-0.6-2.4-2.1-4.4-3.1-5.8l0,0
				c-0.6-0.7-1.2-1-1.9-0.9c-0.4,0.1-0.7,0.3-0.9,0.6c-0.7,1-0.2,2.3,0,2.9c0.5,1.3,1.1,2.6,1.8,3.9c0.8,1.2,1.5,2.1,2.2,2.5
				c-1.8,1.2-3.6,2.5-5.3,4c-2.3,2.1-4,4.4-5,6.8c-0.2-3.7-0.1-7.5,0.4-11.6c1-7.9,3.1-15.7,5.1-23.2c1-3.8,2-7.6,3-11.5
				c0.4,0.3,0.9,0.6,1.5,0.8c0.2,0.1,0.4,0.1,0.6,0.1c1.3,0.2,2.7-0.1,3.7-0.4c2.7-0.8,5.3-2.3,7.5-4.2c1.5-1.3,2.4-2.5,2.8-3.9
				c0.5-1.4,0.4-2.7-0.3-3.7c-0.7-1-2-1.7-3.4-1.7c-1.3,0-2.4,0.5-3.3,0.9c-2.3,1.1-4.6,2.8-6.8,5c-0.4,0.4-0.8,1-1.3,1.5
				c-0.2,0.2-0.3,0.4-0.5,0.6c0.3-2,0.1-4.2-0.5-6.1c-1-3-2.9-5.6-5.5-7.4c-0.6-0.4-1.3-0.8-2.2-0.9c-1,0-2.1,0.6-2.3,1.7
				c0,0.2,0,0.3,0,0.5v0.1c0,0-0.1,0-0.2,0c-0.1,0-0.2,0.1-0.3,0.1c-1,0.3-1.7,1.3-1.9,2.5c-0.1,0.9,0.1,1.8,0.3,2.7
				c1.2,3.9,4.8,11.2,10.2,10.6c0.1,0,0.1,0,0.2,0c-0.9,4.1-2,8.1-3.1,12.1c-0.8,3.1-1.7,6.3-2.5,9.6c-1-2.8-2.4-5.4-4.1-7.8l0,0
				c-1.9-2.6-4.2-4.9-6.8-6.9c0.9-2,0.6-5,0.2-6.5c-0.7-2.8-2.6-5.1-5-6c-0.5-0.2-1.2-0.4-2-0.1s-1.2,1-1.5,1.5
				c-1.6,2.9-1.5,6.5,0.2,9.3c0.8,1.3,1.9,2.3,3.1,2.9c0.5,0.2,1,0.4,1.5,0.5c0.8,0.2,1.7,0.1,2.4-0.3c2,1.5,3.8,3.2,5.4,5.1
				c-1.1,0-2.2-0.1-3.2-0.1c-1.7-0.1-3.5-0.2-5.1-0.1c-0.2,0-0.3,0.1-0.4,0.2c-0.7-0.6-1.9-0.9-3-1.1l-0.2,0.8l0.2-0.8
				c-0.5-0.1-1.2-0.2-1.8-0.1c-1.2,0.1-2.2,0.8-3,1.4c-0.2,0.1-0.5,0.4-0.7,0.7c-0.4,0.8,0,1.8,0.7,2.2c0.3,0.2,0.6,0.3,0.9,0.3
				C22,39,22.2,39,22.4,39H23c1.7,0.1,4.3,0.3,5.6-1c0.4-0.4,0.6-0.7,0.7-1l0,0c0.8,0,1.6,0,2.5,0c-0.9,0.8-1.7,2.2-2,2.9
				c-0.4,0.9-0.5,1.9-0.7,2.7c-0.1,0.7-0.3,1.6-0.1,2.5c0.1,0.6,0.5,0.9,0.9,1c0.1,0,0.3,0,0.4,0c0.3-0.1,0.5-0.3,0.6-0.4l0,0
				c1.8-2,2.7-4.5,3.2-6.7c0.2-0.6,0.4-1.4,0.2-2c1.4,0.1,2.9,0.1,4.3,0.1c2.1,3,3.7,6.4,4.6,9.9c-0.8,3.5-1.5,7-1.9,10.6
				c-0.8,6.1-0.7,11.9,0.1,17.2c0,0.2,0,0.4,0,0.5C41.4,75.9,41.4,76,41.5,76.1z M29.6,44.9l0.6,0.6L29.6,44.9
				C29.5,44.9,29.6,44.9,29.6,44.9z M32.5,38.8c0,0.1,0,0.1,0,0.2c-0.4,1.5-1,3.2-1.9,4.7c0-0.1,0-0.3,0.1-0.4
				c0.1-0.8,0.3-1.6,0.6-2.3C31.4,40.2,31.9,39.3,32.5,38.8z M26,19.6c0.2,1.4,0.5,2.9,1,4.3c0.8,2.3,1.8,4.2,3.2,5.5
				c-0.7-0.1-1.4-0.4-1.4-0.4c-1.1-0.5-1.9-1.5-2.3-2.2C25.1,24.6,25,21.9,26,19.6z M31.4,28.8c-0.1,0.3-0.4,0.4-0.7,0.5
				c-1.4-1.2-2.5-3.1-3.4-5.6c-0.5-1.6-0.9-3.2-1.1-4.8c0.1-0.2,0.3-0.4,0.5-0.5c0.1,0,0.2,0,0.4,0c0.1,0,0.3,0.1,0.4,0.1
				c1.9,0.7,3.4,2.6,4,4.8l0,0C32,25.1,32.1,27.5,31.4,28.8z M25.1,36.3C25.1,36.3,25.2,36.4,25.1,36.3c0.1,0,0.1,0,0.1,0
				c1.4,0.2,1.9,0.5,2.1,0.6L27.2,37c-0.8,0.7-3.1,0.6-4.3,0.5h-0.6c-0.3,0-0.6,0-0.8-0.1c-0.1,0,0,0,0.1-0.1c0.7-0.5,1.5-1,2.2-1.1
				C24.2,36.2,24.6,36.3,25.1,36.3z M41.4,8.3c0.1,0,0.2-0.1,0.3-0.1c0.7,1.2,1.1,2.5,1.6,3.8c0.4,1.3,0.9,2.7,1.6,3.9
				c0.7,1.1,1.5,2.1,2.3,3.1c0.6,0.6,1.1,1.3,1.7,1.9c-3.9,0.3-7.1-5.5-8.2-9.3c-0.2-0.6-0.4-1.3-0.3-2c0.1-0.5,0.4-1,0.7-1.1
				L41.4,8.3z M49.9,18.8c-0.1,0.4-0.2,1-0.2,1.8c-0.1,0.1-0.2,0.1-0.3,0.2c-0.7-0.6-1.3-1.3-1.9-2c-0.8-0.9-1.7-1.9-2.3-3
				c-0.7-1.2-1.1-2.5-1.6-3.8c-0.4-1.3-0.9-2.6-1.6-3.8c0.2-0.1,0.3-0.2,0.5-0.4c0.3-0.4,0.3-0.8,0.3-1.1c0-0.1,0-0.1,0-0.2
				s0.3-0.3,0.6-0.3c0.4,0,0.9,0.3,1.3,0.6c2.3,1.6,4,3.9,4.9,6.5l0,0C50.1,14.8,50.2,16.9,49.9,18.8z M53,22.7
				c-0.8-0.2-1.2-0.7-1.4-1.4c0.7-0.7,1.4-1.5,1.9-2.3c0.4-0.5,0.8-1,1.1-1.4c2-2.1,4.1-3.6,6.3-4.7c0.7-0.3,1.6-0.7,2.6-0.7
				c0.2,0,0.4,0,0.5,0c0.6,0.1,1.1,0.4,1.4,0.8c0.4,0.5,0.4,1.4,0.1,2.2c-0.4,1.1-1.1,2.1-2.4,3.2c-2,1.8-4.3,3.1-6.9,3.9
				C55.3,22.7,54.1,23,53,22.7z M53.3,57.3c-0.2-0.2-0.6-0.7-1.2-1.7c-0.7-1.2-1.2-2.4-1.7-3.7c-0.1-0.2-0.3-0.8-0.3-1.1l0.1,0.1
				c1,1.2,2.3,3.1,2.8,5.1l0.1,0.2C53.2,56.7,53.2,57,53.3,57.3z M61.3,56c4.2-0.9,9.1-2.2,13.6-3.7c0.5-0.1,1.9-0.6,2.9-1.4
				c0,1.1-0.8,2-1.2,2.3c-2,1.9-5,2.4-8.1,2.8C66.3,56.3,63.7,56.6,61.3,56z M59.3,54c-0.1,0-0.1,0.1-0.2,0.1
				c-0.1-0.1-0.2-0.3-0.3-0.5c-0.3-0.5-0.5-1.1-0.6-1.7c-0.1-1,0.2-2.1,0.8-3.4c0.8-1.7,1.9-3.3,3.3-4.6c0.3-0.3,0.5-0.4,0.6-0.4
				c0,0,0,0.1,0.1,0.2c0.6,1.7,0.4,3.9-0.5,5.9C62.1,50.3,60.8,53,59.3,54z M77.8,50.3c-0.8,0.7-2,1.3-3,1.6
				c-4.6,1.5-9.5,2.8-13.7,3.7c0.2-0.3,0.9-0.7,1.1-0.9c2.8-2,5.8-3.6,9-4.7c1.3-0.4,2.6-0.8,3.9-0.8c0.2,0,0.4,0,0.6,0.1
				C76.5,49.5,77.3,49.8,77.8,50.3z M61.7,56.6L61.7,56.6L61.7,56.6c2.4,0.4,4.8,0.1,6.8-0.1c3.2-0.4,6.2-0.9,8.3-2.9
				c0.8-0.8,1.3-1.8,1.3-2.7l0,0c0.8,1.3,0.3,3.1-0.6,4.2c-0.9,1.1-2.4,1.9-4.4,2.4c-2.5,0.7-5.2,0.8-7.8,0.4
				C63.9,57.7,62.6,57.2,61.7,56.6z M55.9,65.7c0,0,0.1,0,0.3,0.3s0.4,0.6,0.5,1.1c0.2,0.8,0.2,1.8,0.1,3c-0.2,1.5-0.6,2.5-1.3,2.9
				c-0.1,0.1-0.2,0.1-0.2,0.1s0-0.1-0.1-0.1c-0.7-1.4-0.9-3.2-0.5-4.8C54.9,66.8,55.6,65.8,55.9,65.7z M70,75.4
				c-0.1,0.3-0.4,0.5-0.6,0.8c-0.9,0-1.8-0.2-2.7-0.7c-1.3-0.7-2.3-1.9-3.2-3c-0.6-0.8-1.3-1.7-1.7-2.8c-0.2-0.6-0.5-1.4-0.4-2.3
				c0,0,0,0,0-0.1c0.2-0.2,0.6-0.4,1.2-0.2c0.9,0.2,2.2,0.8,4.4,2.3l0.1,0.1c1.3,0.9,2.1,1.7,2.6,2.6C70.4,73.2,70.5,74.5,70,75.4z
				 M62.5,73.4c-1-1.9-1.5-3.6-1.5-4.7c0.1,0.5,0.2,1,0.4,1.3c0.4,1.1,1.2,2.1,1.8,2.9c0.9,1.1,1.9,2.3,3.3,3.1
				c0.6,0.3,1.2,0.5,1.8,0.6c0.2,0,0.4,0.1,0.6,0.1C68,77,67,77.1,66.1,76.8C64.4,76.3,63.2,74.6,62.5,73.4z"/>
		</g>
	</g>
</g>
</svg>
